<svg width="334" height="192" viewBox="0 0 334 192" fill="none" xmlns="http://www.w3.org/2000/svg">
<rect x="4" width="326" height="184" rx="20" fill="url(#paint0_linear_114_579)"/>
<mask id="mask0_114_579" style="mask-type:alpha" maskUnits="userSpaceOnUse" x="4" y="0" width="326" height="184">
<rect x="4" width="326" height="184" rx="20" fill="#ED713C"/>
</mask>
<g mask="url(#mask0_114_579)">
<ellipse opacity="0.1" cx="29.3556" cy="213" rx="166.105" ry="113" fill="black"/>
<ellipse opacity="0.08" cx="304.644" cy="-29" rx="166.105" ry="113" fill="black"/>
</g>
<path d="M258.582 154.296C258.582 157.026 259.744 159.154 262.11 159.154C264.49 159.154 265.624 157.026 265.624 154.296C265.624 152.882 265.33 151.748 264.728 150.894C264.14 150.04 263.272 149.606 262.11 149.606C260.948 149.606 260.08 150.04 259.478 150.908C258.876 151.762 258.582 152.896 258.582 154.296ZM264.084 154.31C264.084 156.494 263.468 157.796 262.11 157.796C260.752 157.796 260.122 156.494 260.122 154.31C260.122 152.084 260.78 150.964 262.11 150.964C263.426 150.964 264.084 152.084 264.084 154.31ZM274.146 152.812C274.188 150.992 272.634 149.578 270.884 149.606C269.12 149.606 267.608 150.992 267.608 152.798C267.608 154.548 269.05 155.892 270.632 155.892C270.786 155.892 270.912 155.878 271.038 155.85L268.812 159H270.576L272.872 155.738C273.194 155.29 273.432 154.94 273.586 154.688C273.74 154.422 273.88 154.142 273.978 153.834C274.09 153.512 274.146 153.176 274.146 152.812ZM272.676 152.798C272.676 153.316 272.508 153.75 272.158 154.1C271.808 154.45 271.388 154.632 270.884 154.632C270.366 154.632 269.932 154.464 269.582 154.114C269.232 153.764 269.064 153.316 269.064 152.798C269.064 152.28 269.232 151.846 269.582 151.496C269.932 151.146 270.366 150.964 270.884 150.964C271.388 150.964 271.808 151.146 272.158 151.496C272.508 151.846 272.676 152.28 272.676 152.798ZM273.645 160.694H275.283L282.605 148.08H280.967L273.645 160.694ZM285.98 157.712L287.604 155.99C288.248 155.304 288.738 154.716 289.06 154.198C289.396 153.68 289.564 153.106 289.564 152.476C289.564 150.852 288.262 149.606 286.498 149.606C284.608 149.606 283.39 151.048 283.39 152.56C283.39 152.84 283.418 153.106 283.488 153.358H284.986C284.944 153.078 284.916 152.84 284.916 152.644C284.916 151.692 285.546 150.964 286.484 150.964C287.422 150.964 288.024 151.65 288.024 152.588C288.024 153.372 287.576 154.044 286.554 155.122L283.264 158.664V159H289.886V157.712H285.98ZM298.272 156.018C298.272 154.156 296.774 153.134 295.122 153.134C294.702 153.134 294.31 153.176 293.946 153.26V151.09H297.754V149.76H292.49V154.408H294.618C295.976 154.408 296.746 154.996 296.746 156.046C296.746 157.11 295.934 157.796 294.828 157.796C293.834 157.796 293.148 157.278 292.588 156.424L291.552 157.166C292.182 158.356 293.344 159.154 294.87 159.154C296.704 159.154 298.272 157.88 298.272 156.018Z" fill="white"/>
<path opacity="0.9" d="M42.1876 156.018C42.1876 154.156 40.6896 153.134 39.0376 153.134C38.6176 153.134 38.2256 153.176 37.8616 153.26V151.09H41.6696V149.76H36.4056V154.408H38.5336C39.8916 154.408 40.6616 154.996 40.6616 156.046C40.6616 157.11 39.8496 157.796 38.7436 157.796C37.7496 157.796 37.0636 157.278 36.5036 156.424L35.4676 157.166C36.0976 158.356 37.2596 159.154 38.7856 159.154C40.6196 159.154 42.1876 157.88 42.1876 156.018ZM46.7279 157.712L48.3519 155.99C48.9959 155.304 49.4859 154.716 49.8079 154.198C50.1439 153.68 50.3119 153.106 50.3119 152.476C50.3119 150.852 49.0099 149.606 47.2459 149.606C45.3559 149.606 44.1379 151.048 44.1379 152.56C44.1379 152.84 44.1659 153.106 44.2359 153.358H45.7339C45.6919 153.078 45.6639 152.84 45.6639 152.644C45.6639 151.692 46.2939 150.964 47.2319 150.964C48.1699 150.964 48.7719 151.65 48.7719 152.588C48.7719 153.372 48.3239 154.044 47.3019 155.122L44.0119 158.664V159H50.6339V157.712H46.7279ZM59.3136 156.592C59.3136 155.416 58.5296 154.646 57.3116 154.198C58.3336 153.652 58.8796 152.938 58.8796 151.972C58.8796 151.23 58.5996 150.642 58.0536 150.236C57.5076 149.816 56.8076 149.606 55.9676 149.606C55.1136 149.606 54.4136 149.816 53.8536 150.236C53.3076 150.642 53.0276 151.23 53.0276 151.972C53.0276 152.966 53.5876 153.652 54.5956 154.198C53.3636 154.646 52.5936 155.416 52.5936 156.592C52.5936 158.146 53.9796 159.154 55.9676 159.154C57.9416 159.154 59.3136 158.146 59.3136 156.592ZM54.4416 152.028C54.4416 151.286 55.0716 150.824 55.9676 150.824C56.8496 150.824 57.4656 151.286 57.4656 152.028C57.4656 152.714 57.0036 153.078 55.9536 153.526C54.9036 153.064 54.4416 152.7 54.4416 152.028ZM57.8156 156.536C57.8156 157.376 57.1576 157.922 55.9676 157.922C54.7776 157.922 54.0916 157.376 54.0916 156.536C54.0916 155.71 54.7216 155.276 55.9536 154.842C57.1856 155.29 57.8156 155.696 57.8156 156.536ZM63.9017 157.712L65.5257 155.99C66.1697 155.304 66.6597 154.716 66.9817 154.198C67.3177 153.68 67.4857 153.106 67.4857 152.476C67.4857 150.852 66.1837 149.606 64.4197 149.606C62.5297 149.606 61.3117 151.048 61.3117 152.56C61.3117 152.84 61.3397 153.106 61.4097 153.358H62.9077C62.8657 153.078 62.8377 152.84 62.8377 152.644C62.8377 151.692 63.4677 150.964 64.4057 150.964C65.3437 150.964 65.9457 151.65 65.9457 152.588C65.9457 153.372 65.4977 154.044 64.4757 155.122L61.1857 158.664V159H67.8077V157.712H63.9017ZM80.3933 156.032C80.3933 155.234 80.1553 154.59 79.6793 154.1C79.2033 153.61 78.6293 153.302 77.9433 153.19L80.1833 150.166V149.76H74.4293V151.118H77.8733L75.7173 154.016V154.422H76.7393C78.0973 154.422 78.8673 154.996 78.8673 156.046C78.8673 157.096 78.0833 157.796 76.9773 157.796C76.0253 157.796 75.3673 157.278 74.8073 156.424L73.7713 157.152C74.3873 158.342 75.5213 159.154 77.0193 159.154C78.8393 159.154 80.3933 157.908 80.3933 156.032ZM89.1949 156.116H87.9349V153.274H86.4509V156.116H83.6929L86.3109 149.76H84.7849L81.8309 156.984V157.39H86.4509V159H87.9349V157.39H89.1949V156.116ZM97.0802 156.018C97.0802 154.156 95.5822 153.134 93.9302 153.134C93.5102 153.134 93.1182 153.176 92.7542 153.26V151.09H96.5622V149.76H91.2982V154.408H93.4262C94.7842 154.408 95.5542 154.996 95.5542 156.046C95.5542 157.11 94.7422 157.796 93.6362 157.796C92.6422 157.796 91.9562 157.278 91.3962 156.424L90.3602 157.166C90.9902 158.356 92.1522 159.154 93.6782 159.154C95.5122 159.154 97.0802 157.88 97.0802 156.018ZM105.428 155.962C105.428 154.212 104 152.868 102.39 152.868C102.236 152.868 102.11 152.882 101.984 152.91L104.21 149.76H102.46L100.15 153.022C99.8285 153.484 99.5905 153.834 99.4365 154.086C99.2825 154.338 99.1565 154.618 99.0445 154.94C98.9465 155.248 98.8905 155.584 98.8905 155.948C98.8485 157.768 100.402 159.182 102.152 159.154C103.916 159.154 105.428 157.768 105.428 155.962ZM103.958 155.962C103.958 156.48 103.776 156.928 103.426 157.278C103.076 157.628 102.656 157.796 102.152 157.796C101.634 157.796 101.214 157.628 100.864 157.278C100.514 156.928 100.346 156.48 100.346 155.962C100.346 155.444 100.514 155.01 100.864 154.66C101.214 154.31 101.634 154.128 102.152 154.128C102.656 154.128 103.076 154.31 103.426 154.66C103.776 155.01 103.958 155.444 103.958 155.962ZM111.468 149.76V151.09H115.808L111.734 159H113.344L117.81 150.166V149.76H111.468ZM125.652 156.592C125.652 155.416 124.868 154.646 123.65 154.198C124.672 153.652 125.218 152.938 125.218 151.972C125.218 151.23 124.938 150.642 124.392 150.236C123.846 149.816 123.146 149.606 122.306 149.606C121.452 149.606 120.752 149.816 120.192 150.236C119.646 150.642 119.366 151.23 119.366 151.972C119.366 152.966 119.926 153.652 120.934 154.198C119.702 154.646 118.932 155.416 118.932 156.592C118.932 158.146 120.318 159.154 122.306 159.154C124.28 159.154 125.652 158.146 125.652 156.592ZM120.78 152.028C120.78 151.286 121.41 150.824 122.306 150.824C123.188 150.824 123.804 151.286 123.804 152.028C123.804 152.714 123.342 153.078 122.292 153.526C121.242 153.064 120.78 152.7 120.78 152.028ZM124.154 156.536C124.154 157.376 123.496 157.922 122.306 157.922C121.116 157.922 120.43 157.376 120.43 156.536C120.43 155.71 121.06 155.276 122.292 154.842C123.524 155.29 124.154 155.696 124.154 156.536ZM134.048 152.812C134.09 150.992 132.536 149.578 130.786 149.606C129.022 149.606 127.51 150.992 127.51 152.798C127.51 154.548 128.952 155.892 130.534 155.892C130.688 155.892 130.814 155.878 130.94 155.85L128.714 159H130.478L132.774 155.738C133.096 155.29 133.334 154.94 133.488 154.688C133.642 154.422 133.782 154.142 133.88 153.834C133.992 153.512 134.048 153.176 134.048 152.812ZM132.578 152.798C132.578 153.316 132.41 153.75 132.06 154.1C131.71 154.45 131.29 154.632 130.786 154.632C130.268 154.632 129.834 154.464 129.484 154.114C129.134 153.764 128.966 153.316 128.966 152.798C128.966 152.28 129.134 151.846 129.484 151.496C129.834 151.146 130.268 150.964 130.786 150.964C131.29 150.964 131.71 151.146 132.06 151.496C132.41 151.846 132.578 152.28 132.578 152.798ZM136.013 154.296C136.013 157.026 137.175 159.154 139.541 159.154C141.921 159.154 143.055 157.026 143.055 154.296C143.055 152.882 142.761 151.748 142.159 150.894C141.571 150.04 140.703 149.606 139.541 149.606C138.379 149.606 137.511 150.04 136.909 150.908C136.307 151.762 136.013 152.896 136.013 154.296ZM141.515 154.31C141.515 156.494 140.899 157.796 139.541 157.796C138.183 157.796 137.553 156.494 137.553 154.31C137.553 152.084 138.211 150.964 139.541 150.964C140.857 150.964 141.515 152.084 141.515 154.31ZM152.375 149.76L149.169 150.81L149.533 152.112L151.409 151.51V159H152.893V149.76H152.375ZM158.148 157.712L159.772 155.99C160.416 155.304 160.906 154.716 161.228 154.198C161.564 153.68 161.732 153.106 161.732 152.476C161.732 150.852 160.43 149.606 158.666 149.606C156.776 149.606 155.558 151.048 155.558 152.56C155.558 152.84 155.586 153.106 155.656 153.358H157.154C157.112 153.078 157.084 152.84 157.084 152.644C157.084 151.692 157.714 150.964 158.652 150.964C159.59 150.964 160.192 151.65 160.192 152.588C160.192 153.372 159.744 154.044 158.722 155.122L155.432 158.664V159H162.054V157.712H158.148ZM170.734 156.592C170.734 155.416 169.95 154.646 168.732 154.198C169.754 153.652 170.3 152.938 170.3 151.972C170.3 151.23 170.02 150.642 169.474 150.236C168.928 149.816 168.228 149.606 167.388 149.606C166.534 149.606 165.834 149.816 165.274 150.236C164.728 150.642 164.448 151.23 164.448 151.972C164.448 152.966 165.008 153.652 166.016 154.198C164.784 154.646 164.014 155.416 164.014 156.592C164.014 158.146 165.4 159.154 167.388 159.154C169.362 159.154 170.734 158.146 170.734 156.592ZM165.862 152.028C165.862 151.286 166.492 150.824 167.388 150.824C168.27 150.824 168.886 151.286 168.886 152.028C168.886 152.714 168.424 153.078 167.374 153.526C166.324 153.064 165.862 152.7 165.862 152.028ZM169.236 156.536C169.236 157.376 168.578 157.922 167.388 157.922C166.198 157.922 165.512 157.376 165.512 156.536C165.512 155.71 166.142 155.276 167.374 154.842C168.606 155.29 169.236 155.696 169.236 156.536ZM179.13 152.812C179.172 150.992 177.618 149.578 175.868 149.606C174.104 149.606 172.592 150.992 172.592 152.798C172.592 154.548 174.034 155.892 175.616 155.892C175.77 155.892 175.896 155.878 176.022 155.85L173.796 159H175.56L177.856 155.738C178.178 155.29 178.416 154.94 178.57 154.688C178.724 154.422 178.864 154.142 178.962 153.834C179.074 153.512 179.13 153.176 179.13 152.812ZM177.66 152.798C177.66 153.316 177.492 153.75 177.142 154.1C176.792 154.45 176.372 154.632 175.868 154.632C175.35 154.632 174.916 154.464 174.566 154.114C174.216 153.764 174.048 153.316 174.048 152.798C174.048 152.28 174.216 151.846 174.566 151.496C174.916 151.146 175.35 150.964 175.868 150.964C176.372 150.964 176.792 151.146 177.142 151.496C177.492 151.846 177.66 152.28 177.66 152.798Z" fill="white"/>
<path d="M269.371 27.9742H281.963V49.8367H269.371V27.9742Z" fill="#FF5F00"/>
<path d="M260.856 60.8409V58.5234C260.856 57.6348 260.296 57.0556 259.337 57.0556C258.857 57.0556 258.338 57.2101 257.978 57.7123C257.698 57.2873 257.298 57.0556 256.699 57.0556C256.299 57.0556 255.899 57.1714 255.579 57.5963V57.1328H254.74V60.8409H255.579V58.7937C255.579 58.1372 255.939 57.828 256.499 57.828C257.058 57.828 257.338 58.1757 257.338 58.7937V60.8409H258.178V58.7937C258.178 58.1372 258.577 57.828 259.097 57.828C259.657 57.828 259.937 58.1757 259.937 58.7937V60.8409H260.856ZM273.288 57.1328H271.929V56.0127H271.09V57.1328H270.33V57.8666H271.09V59.5663C271.09 60.4162 271.449 60.9182 272.409 60.9182C272.769 60.9182 273.168 60.8024 273.448 60.6479L273.208 59.9525C272.969 60.107 272.689 60.1457 272.489 60.1457C272.089 60.1457 271.929 59.914 271.929 59.5276V57.8666H273.288V57.1328ZM280.404 57.0554C279.924 57.0554 279.605 57.2873 279.405 57.5963V57.1328H278.565V60.8409H279.405V58.7551C279.405 58.1372 279.684 57.7895 280.204 57.7895C280.364 57.7895 280.564 57.8282 280.724 57.8668L280.964 57.0943C280.804 57.0556 280.564 57.0556 280.404 57.0556V57.0554ZM269.651 57.4418C269.251 57.1714 268.691 57.0556 268.092 57.0556C267.132 57.0556 266.493 57.5191 266.493 58.253C266.493 58.8711 266.972 59.2186 267.812 59.3346L268.212 59.3733C268.651 59.4503 268.891 59.5663 268.891 59.7595C268.891 60.0298 268.571 60.223 268.012 60.223C267.452 60.223 267.012 60.0298 266.732 59.8367L266.333 60.4547C266.772 60.7637 267.372 60.9182 267.972 60.9182C269.091 60.9182 269.731 60.4162 269.731 59.7208C269.731 59.0641 269.211 58.7164 268.411 58.6007L268.012 58.562C267.652 58.5232 267.372 58.4462 267.372 58.2144C267.372 57.944 267.652 57.7895 268.092 57.7895C268.571 57.7895 269.051 57.9825 269.291 58.0985L269.651 57.4418ZM291.957 57.0556C291.477 57.0556 291.157 57.2873 290.957 57.5963V57.1328H290.118V60.8409H290.957V58.7551C290.957 58.1372 291.237 57.7895 291.757 57.7895C291.917 57.7895 292.117 57.8282 292.277 57.8668L292.516 57.0943C292.357 57.0556 292.117 57.0556 291.957 57.0556ZM281.243 58.9869C281.243 60.107 282.043 60.9182 283.282 60.9182C283.842 60.9182 284.242 60.8024 284.641 60.4934L284.242 59.8367C283.922 60.0685 283.602 60.1843 283.242 60.1843C282.563 60.1843 282.083 59.7208 282.083 58.9869C282.083 58.2917 282.563 57.828 283.242 57.7895C283.602 57.7895 283.922 57.9053 284.242 58.1372L284.641 57.4805C284.242 57.1714 283.842 57.0556 283.282 57.0556C282.043 57.0556 281.243 57.8668 281.243 58.9869ZM288.999 58.9869V57.1328H288.159V57.5963C287.879 57.2488 287.48 57.0556 286.96 57.0556C285.881 57.0556 285.041 57.8668 285.041 58.9869C285.041 60.107 285.881 60.9182 286.96 60.9182C287.519 60.9182 287.919 60.7251 288.159 60.3774V60.8409H288.999V58.9869ZM285.92 58.9869C285.92 58.3302 286.36 57.7895 287.08 57.7895C287.759 57.7895 288.239 58.2917 288.239 58.9869C288.239 59.6435 287.759 60.1843 287.08 60.1843C286.36 60.1455 285.92 59.6435 285.92 58.9869ZM275.887 57.0556C274.767 57.0556 273.968 57.828 273.968 58.9869C273.968 60.1457 274.767 60.9182 275.927 60.9182C276.486 60.9182 277.046 60.7637 277.486 60.4162L277.086 59.8367C276.766 60.0685 276.366 60.223 275.967 60.223C275.447 60.223 274.927 59.9912 274.807 59.3344H277.646V59.0256C277.686 57.828 276.966 57.0556 275.887 57.0556H275.887ZM275.887 57.7508C276.406 57.7508 276.766 58.06 276.846 58.6394H274.847C274.927 58.1372 275.287 57.7508 275.887 57.7508ZM296.714 58.9869V55.665H295.874V57.5963C295.594 57.2488 295.195 57.0556 294.675 57.0556C293.596 57.0556 292.756 57.8668 292.756 58.9869C292.756 60.107 293.596 60.9182 294.675 60.9182C295.235 60.9182 295.635 60.7251 295.874 60.3774V60.8409H296.714V58.9869ZM293.636 58.9869C293.636 58.3302 294.075 57.7895 294.795 57.7895C295.475 57.7895 295.954 58.2917 295.954 58.9869C295.954 59.6435 295.475 60.1843 294.795 60.1843C294.075 60.1455 293.636 59.6435 293.636 58.9869ZM265.573 58.9869V57.1328H264.734V57.5963C264.454 57.2488 264.054 57.0556 263.534 57.0556C262.455 57.0556 261.616 57.8668 261.616 58.9869C261.616 60.107 262.455 60.9182 263.534 60.9182C264.094 60.9182 264.494 60.7251 264.734 60.3774V60.8409H265.573V58.9869ZM262.455 58.9869C262.455 58.3302 262.895 57.7895 263.614 57.7895C264.294 57.7895 264.774 58.2917 264.774 58.9869C264.774 59.6435 264.294 60.1843 263.614 60.1843C262.895 60.1455 262.455 59.6435 262.455 58.9869Z" fill="white"/>
<path d="M270.17 38.9055C270.17 34.4635 272.329 30.5236 275.646 27.9742C273.208 26.1201 270.13 25 266.772 25C258.817 25 252.381 31.2188 252.381 38.9055C252.381 46.5921 258.817 52.811 266.772 52.811C270.13 52.811 273.208 51.6909 275.646 49.8367C272.329 47.326 270.17 43.3475 270.17 38.9055Z" fill="#EB001B"/>
<path d="M298.952 38.9055C298.952 46.5921 292.516 52.811 284.561 52.811C281.203 52.811 278.125 51.6909 275.686 49.8367C279.044 47.2874 281.163 43.3475 281.163 38.9055C281.163 34.4635 279.004 30.5236 275.686 27.9742C278.125 26.1201 281.203 25 284.561 25C292.516 25 298.952 31.2575 298.952 38.9055H298.952Z" fill="#F79E1B"/>
<path d="M43.8956 77.328C46.6676 76.908 48.5716 75.172 48.5716 72.596C48.5716 70.356 47.1156 68.844 44.3996 67.808L42.3276 67.024C40.7876 66.352 40.0876 65.82 40.0876 64.728C40.0876 63.468 41.2356 62.852 42.6636 62.852C44.1196 62.852 45.1556 63.496 46.1356 64.924L48.1516 63.412C47.1716 61.676 45.7436 60.64 43.8956 60.304V57.028H41.1796V60.36C38.7996 60.836 37.1476 62.488 37.1476 64.756C37.1476 66.8 38.4916 68.368 41.2076 69.432L43.1396 70.188C44.8476 70.944 45.6316 71.532 45.6316 72.652C45.6316 73.996 44.3996 74.808 42.6916 74.808C40.8156 74.808 39.3036 73.856 38.0996 71.98L36.0556 73.492C37.1756 75.508 38.9396 76.852 41.1796 77.272V80.66H43.8956V77.328ZM64.3667 72.036C64.3667 68.312 61.3707 66.268 58.0667 66.268C57.2267 66.268 56.4427 66.352 55.7147 66.52V62.18H63.3307V59.52H52.8027V68.816H57.0587C59.7747 68.816 61.3147 69.992 61.3147 72.092C61.3147 74.22 59.6907 75.592 57.4787 75.592C55.4907 75.592 54.1187 74.556 52.9987 72.848L50.9267 74.332C52.1867 76.712 54.5107 78.308 57.5627 78.308C61.2307 78.308 64.3667 75.76 64.3667 72.036ZM67.8833 82.984H70.2633L71.5793 75.032H68.1633L67.8833 82.984ZM74.3095 59.52V62.18H82.9895L74.8415 78H78.0615L86.9935 60.332V59.52H74.3095ZM101.937 72.036C101.937 68.312 98.941 66.268 95.637 66.268C94.797 66.268 94.013 66.352 93.285 66.52V62.18H100.901V59.52H90.373V68.816H94.629C97.345 68.816 98.885 69.992 98.885 72.092C98.885 74.22 97.261 75.592 95.049 75.592C93.061 75.592 91.689 74.556 90.569 72.848L88.497 74.332C89.757 76.712 92.081 78.308 95.133 78.308C98.801 78.308 101.937 75.76 101.937 72.036ZM105.006 68.592C105.006 74.052 107.33 78.308 112.062 78.308C116.822 78.308 119.09 74.052 119.09 68.592C119.09 65.764 118.502 63.496 117.298 61.788C116.122 60.08 114.386 59.212 112.062 59.212C109.738 59.212 108.002 60.08 106.798 61.816C105.594 63.524 105.006 65.792 105.006 68.592ZM116.01 68.62C116.01 72.988 114.778 75.592 112.062 75.592C109.346 75.592 108.086 72.988 108.086 68.62C108.086 64.168 109.402 61.928 112.062 61.928C114.694 61.928 116.01 64.168 116.01 68.62ZM122.68 82.984H125.06L126.376 75.032H122.96L122.68 82.984ZM135.092 75.424L138.34 71.98C139.628 70.608 140.608 69.432 141.252 68.396C141.924 67.36 142.26 66.212 142.26 64.952C142.26 61.704 139.656 59.212 136.128 59.212C132.348 59.212 129.912 62.096 129.912 65.12C129.912 65.68 129.968 66.212 130.108 66.716H133.104C133.02 66.156 132.964 65.68 132.964 65.288C132.964 63.384 134.224 61.928 136.1 61.928C137.976 61.928 139.18 63.3 139.18 65.176C139.18 66.744 138.284 68.088 136.24 70.244L129.66 77.328V78H142.904V75.424H135.092ZM146.103 68.592C146.103 74.052 148.427 78.308 153.159 78.308C157.919 78.308 160.187 74.052 160.187 68.592C160.187 65.764 159.599 63.496 158.395 61.788C157.219 60.08 155.483 59.212 153.159 59.212C150.835 59.212 149.099 60.08 147.895 61.816C146.691 63.524 146.103 65.792 146.103 68.592ZM157.107 68.62C157.107 72.988 155.875 75.592 153.159 75.592C150.443 75.592 149.183 72.988 149.183 68.62C149.183 64.168 150.499 61.928 153.159 61.928C155.791 61.928 157.107 64.168 157.107 68.62Z" fill="white"/>
<path opacity="0.54" d="M35.6496 38.38C35.5936 41.026 37.8756 43.196 40.5076 43.154C42.2296 43.154 43.6856 42.328 44.4696 41.026L43.3496 40.2C42.6916 41.222 41.7396 41.796 40.5216 41.796C38.6316 41.796 37.1896 40.34 37.1896 38.38C37.1896 36.42 38.6316 34.964 40.5216 34.964C41.7396 34.964 42.6916 35.538 43.3496 36.56L44.4696 35.734C43.6716 34.432 42.2016 33.606 40.5076 33.606C37.8756 33.564 35.5936 35.734 35.6496 38.38ZM46.0768 40.116C46.0768 41.964 47.3648 43.154 49.0868 43.154C50.7668 43.154 52.0688 41.964 52.0688 40.116V36.126H50.5988V40.228C50.5988 41.18 49.9408 41.796 49.0868 41.796C48.1908 41.796 47.5328 41.18 47.5328 40.228V36.126H46.0768V40.116ZM58.0651 36.126C57.8971 36.084 57.7151 36.056 57.5051 36.056C56.7211 36.056 55.9931 36.406 55.5031 37.022V36.126H54.1311V43H55.6011V39.332C55.6011 38.114 56.4551 37.428 57.6171 37.428H58.0651V36.126ZM63.3151 36.126C63.1471 36.084 62.9651 36.056 62.7551 36.056C61.9711 36.056 61.2431 36.406 60.7531 37.022V36.126H59.3811V43H60.8511V39.332C60.8511 38.114 61.7051 37.428 62.8671 37.428H63.3151V36.126ZM70.6824 40.046C70.7524 39.724 70.7944 39.416 70.7944 39.122C70.7944 37.33 69.4364 35.972 67.6164 35.972C65.6704 35.93 64.0184 37.596 64.0604 39.57C64.0604 41.6 65.6564 43.154 67.7564 43.154C68.8064 43.154 69.7164 42.79 70.5004 42.048L69.8004 41.04C69.1844 41.586 68.5124 41.852 67.7984 41.852C66.6224 41.852 65.7404 41.166 65.5584 40.046H70.6824ZM65.5864 38.898C65.8104 37.876 66.5944 37.218 67.5604 37.218C68.5264 37.218 69.3104 37.848 69.3244 38.898H65.5864ZM78.4848 38.702C78.4848 37.064 77.5188 35.972 75.9088 35.972C75.0548 35.972 74.3688 36.252 73.8508 36.798V36.126H72.4788V43H73.9488V38.898C73.9488 37.96 74.6068 37.302 75.5168 37.302C76.4128 37.302 77.0148 37.946 77.0148 38.898V43H78.4848V38.702ZM84.6195 41.754C84.2135 41.796 83.9195 41.824 83.7095 41.824C82.8135 41.824 82.3515 41.516 82.3515 40.634V37.4H84.3955V36.126H82.3515V34.32H80.8675V36.126H79.7475V37.4H80.8675V40.76C80.8675 42.37 81.8195 43.154 83.4015 43.154C83.7515 43.154 84.1575 43.098 84.6195 43V41.754ZM97.0895 40.312C97.0895 39.178 96.4455 38.31 95.3675 37.96C95.8715 37.526 96.1375 36.938 96.1375 36.224C96.1375 34.796 95.0315 33.76 93.3655 33.76H90.1315V43H94.0935C95.8995 43 97.0895 41.866 97.0895 40.312ZM93.2255 35.062C94.1355 35.062 94.6535 35.524 94.6535 36.294C94.6535 37.064 94.1355 37.554 93.2255 37.554H91.5875V35.062H93.2255ZM95.5915 40.27C95.5915 41.152 94.9895 41.698 93.9675 41.698H91.5875V38.828H93.9675C94.9895 38.828 95.5915 39.388 95.5915 40.27ZM104.148 38.842C104.148 36.994 103.028 35.972 101.334 35.972C100.144 35.972 99.1218 36.448 98.4358 37.442L99.2898 38.31C99.8638 37.624 100.424 37.288 101.194 37.288C102.132 37.288 102.664 37.806 102.664 38.758V39.206H100.718C99.1638 39.206 98.1838 39.976 98.1838 41.166C98.1838 42.356 99.1358 43.154 100.578 43.154C101.516 43.154 102.272 42.832 102.776 42.23V43H104.148V38.842ZM102.664 40.396C102.664 41.334 101.88 42.02 100.886 42.02C100.172 42.02 99.6818 41.684 99.6818 41.11C99.6818 40.55 100.116 40.27 100.9 40.27H102.664V40.396ZM106.194 43H107.664V32.5H106.194V43ZM115.249 38.842C115.249 36.994 114.129 35.972 112.435 35.972C111.245 35.972 110.223 36.448 109.537 37.442L110.391 38.31C110.965 37.624 111.525 37.288 112.295 37.288C113.233 37.288 113.765 37.806 113.765 38.758V39.206H111.819C110.265 39.206 109.285 39.976 109.285 41.166C109.285 42.356 110.237 43.154 111.679 43.154C112.617 43.154 113.373 42.832 113.877 42.23V43H115.249V38.842ZM113.765 40.396C113.765 41.334 112.981 42.02 111.987 42.02C111.273 42.02 110.783 41.684 110.783 41.11C110.783 40.55 111.217 40.27 112.001 40.27H113.765V40.396ZM123.301 38.702C123.301 37.064 122.335 35.972 120.725 35.972C119.871 35.972 119.185 36.252 118.667 36.798V36.126H117.295V43H118.765V38.898C118.765 37.96 119.423 37.302 120.333 37.302C121.229 37.302 121.831 37.946 121.831 38.898V43H123.301V38.702ZM124.914 39.556C124.914 41.558 126.524 43.154 128.554 43.154C129.8 43.154 130.836 42.552 131.452 41.558L130.416 40.76C129.912 41.446 129.296 41.796 128.568 41.796C127.336 41.796 126.412 40.816 126.412 39.556C126.412 38.31 127.336 37.33 128.568 37.33C129.31 37.33 129.926 37.68 130.416 38.38L131.452 37.568C130.85 36.574 129.828 35.972 128.554 35.972C126.58 35.944 124.872 37.582 124.914 39.556ZM139.124 40.046C139.194 39.724 139.236 39.416 139.236 39.122C139.236 37.33 137.878 35.972 136.058 35.972C134.112 35.93 132.46 37.596 132.502 39.57C132.502 41.6 134.098 43.154 136.198 43.154C137.248 43.154 138.158 42.79 138.942 42.048L138.242 41.04C137.626 41.586 136.954 41.852 136.24 41.852C135.064 41.852 134.182 41.166 134 40.046H139.124ZM134.028 38.898C134.252 37.876 135.036 37.218 136.002 37.218C136.968 37.218 137.752 37.848 137.766 38.898H134.028Z" fill="white"/>
<defs>
<linearGradient id="paint0_linear_114_579" x1="168.124" y1="-30.5053" x2="174.611" y2="207.048" gradientUnits="userSpaceOnUse">
<stop stop-color="#9C2CF3"/>
<stop offset="1" stop-color="#3A6FF9"/>
</linearGradient>
</defs>
</svg>
